<?xml version="1.0" standalone="no"?>
<!DOCTYPE svg PUBLIC "-//W3C//DTD SVG 20010904//EN"
 "http://www.w3.org/TR/2001/REC-SVG-20010904/DTD/svg10.dtd">
<svg version="1.0" xmlns="http://www.w3.org/2000/svg"
 width="256.000000pt" height="256.000000pt" viewBox="0 0 256.000000 256.000000"
 preserveAspectRatio="xMidYMid meet">

<g transform="translate(0.000000,256.000000) scale(0.100000,-0.100000)"
fill="white" stroke="none">
<path d="M1130 2530 c-511 -71 -928 -437 -1055 -926 -32 -124 -49 -281 -41
-387 48 -678 588 -1187 1259 -1187 685 0 1247 563 1247 1250 0 596 -404 1098
-990 1231 -99 22 -322 32 -420 19z m-254 -669 c49 -22 74 -52 115 -139 34 -72
40 -78 139 -134 247 -143 318 -163 600 -172 238 -8 471 -23 494 -32 9 -3 16
-11 16 -16 0 -34 -163 -131 -240 -143 -209 -32 -483 -109 -479 -135 0 -3 47
-45 105 -94 57 -49 104 -95 104 -102 0 -25 -240 -18 -400 10 l-35 6 -34 -74
c-18 -41 -33 -78 -33 -82 1 -4 29 -16 64 -28 41 -14 64 -27 66 -38 4 -22 -18
-23 -107 -4 -62 14 -70 13 -198 -17 -116 -27 -135 -29 -143 -17 -5 8 -8 19 -7
25 2 5 55 26 118 46 l114 36 12 54 c21 90 17 100 -52 119 -143 39 -298 148
-359 253 -53 90 -69 153 -71 282 -1 98 -5 130 -23 173 -12 29 -22 62 -22 73 0
12 -23 42 -57 72 l-56 52 89 6 c49 3 107 13 129 22 53 21 101 21 151 -2z"/>
</g>
</svg>
